# Blender 4.3.0
# www.blender.org
mtllib untitled.mtl
o Cube
v 0.380501 -0.096828 1.282200
v 0.380501 -0.911316 0.308150
v 0.380501 0.911316 0.858845
v 0.380501 0.431202 1.282200
v 0.380501 -0.096828 -1.282200
v 0.380501 -0.911316 -0.308150
v 0.380501 0.911316 -0.858845
v 0.380501 0.431202 -1.282200
v -0.423217 -0.065366 1.250477
v -0.376142 -0.106251 1.406977
v -0.423217 -0.888769 0.265765
v -0.376142 -1.000000 0.338138
v -0.423217 0.888769 0.855810
v -0.376142 1.000000 0.942423
v -0.423217 0.441189 1.250477
v -0.376142 0.473164 1.406977
v -0.423217 -0.065366 -1.250477
v -0.376142 -0.106251 -1.406977
v -0.423217 -0.888769 -0.265765
v -0.376142 -1.000000 -0.338138
v -0.423217 0.888769 -0.855810
v -0.376142 1.000000 -0.942423
v -0.423217 0.441189 -1.250477
v -0.376142 0.473164 -1.406977
v 0.398985 -0.106251 1.406977
v 0.423217 -0.100088 1.325365
v 0.398985 -1.000000 0.338138
v 0.423217 -0.941637 0.318403
v 0.423217 0.942721 0.888441
v 0.398985 1.000000 0.942423
v 0.423217 0.445964 1.326095
v 0.398985 0.473164 1.406977
v 0.423217 -0.100088 -1.325365
v 0.398985 -0.106251 -1.406977
v 0.398985 -1.000000 -0.338138
v 0.423217 -0.941637 -0.318403
v 0.423217 0.942721 -0.888441
v 0.398985 1.000000 -0.942423
v 0.398985 0.473164 -1.406977
v 0.423217 0.445964 -1.326095
v 0.410432 0.431202 1.282200
v 0.423217 0.445554 1.324876
v 0.423217 -0.942110 0.318563
v 0.410432 -0.911316 0.308150
v 0.423217 0.941538 0.887327
v 0.410432 0.911316 0.858845
v 0.410432 -0.096828 1.282200
v 0.423217 -0.100080 1.325261
v 0.410432 0.431202 -1.282200
v 0.423217 0.445554 -1.324876
v 0.410432 0.911316 -0.858845
v 0.423217 0.941538 -0.887327
v 0.410432 -0.911316 -0.308150
v 0.423217 -0.942110 -0.318563
v 0.410432 -0.096828 -1.282200
v 0.423217 -0.100080 -1.325261
vn -0.0000 -0.0000 1.0000
vn -0.0000 1.0000 -0.0000
vn -0.0000 0.6614 0.7501
vn -0.0000 0.7671 0.6415
vn 1.0000 -0.0000 -0.0000
vn -0.0000 -0.7671 0.6415
vn -0.0000 0.7671 -0.6415
vn -0.0000 -0.6614 0.7501
vn -0.0000 -1.0000 -0.0000
vn -0.0000 -0.6614 -0.7501
vn -0.0000 0.6614 -0.7501
vn -0.0000 -0.7671 -0.6415
vn -0.0000 -0.0000 -1.0000
vn -0.9576 -0.0000 0.2880
vn -0.9209 -0.3897 -0.0000
vn -0.9468 0.2128 0.2413
vn -0.9417 -0.2581 0.2158
vn -0.9576 -0.0000 -0.2880
vn -0.9209 0.3897 -0.0000
vn -0.9468 0.2128 -0.2413
vn -0.9417 -0.2581 -0.2158
vn -1.0000 -0.0000 -0.0000
vn 0.9583 -0.0002 0.2858
vn 0.9555 0.1950 0.2212
vn 0.9209 -0.2990 0.2500
vn 0.9210 0.3896 -0.0000
vn 0.9583 -0.0002 -0.2858
vn 0.9236 -0.3835 -0.0000
vn 0.9209 -0.2990 -0.2500
vn 0.9555 0.1950 -0.2212
vn 0.9582 -0.1891 -0.2146
vn 0.9262 -0.3771 -0.0000
vn 0.9582 -0.1891 0.2146
vn 0.9595 0.0002 0.2818
vn 0.9200 0.3007 0.2514
vn 0.9214 0.3885 -0.0000
vn 0.9200 0.3007 -0.2514
vn 0.9595 0.0002 -0.2818
vt 0.559146 0.986096
vt 0.486719 0.986096
vt 0.486719 0.757157
vt 0.559146 0.757157
vt 0.865299 0.518313
vt 0.875000 0.518313
vt 0.431195 0.263904
vt 0.431195 0.492843
vt 0.508914 0.492843
vt 0.508914 0.263904
vt 0.865299 0.664936
vt 0.875000 0.664936
vt 0.508914 0.250000
vt 0.559146 1.000000
vt 0.486719 1.000000
vt 0.431195 0.250000
vt 0.861096 0.518313
vt 0.632157 0.518313
vt 0.632157 0.664936
vt 0.861096 0.664936
vt 0.508914 0.259701
vt 0.431195 0.259701
vt 0.508914 0.492843
vt 0.486719 0.990299
vt 0.559146 0.990299
vt 0.431195 0.492843
vt 0.632157 0.664936
vt 0.559146 0.757157
vt 0.486719 0.757157
vt 0.494236 0.304033
vt 0.813935 0.603577
vt 0.857327 0.524658
vt 0.843818 0.536315
vt 0.511912 0.267022
vt 0.509414 0.866361
vt 0.459265 0.334211
vt 0.509017 0.269520
vt 0.486719 0.904461
vt 0.514135 0.815134
vt 0.431195 0.500000
vt 0.486719 0.750000
vt 0.431195 0.346920
vt 0.508914 0.347472
vt 0.625000 0.522736
vt 0.625000 0.660827
vt 0.559146 0.903080
vt 0.780415 0.518313
s 0
usemtl Material
f 16/1/1 10/2/1 25/3/1 32/4/1
f 53/5/2 6/6/2 2/6/2 44/5/2
f 16/7/3 32/8/3 30/9/3 14/10/3
f 55/11/4 5/12/4 6/6/4 53/5/4
f 7/13/5 3/13/5 4/14/5 1/12/5 2/6/5 6/6/5 5/15/5 8/16/5
f 12/17/6 27/18/6 25/19/6 10/20/6
f 2/6/7 1/12/7 47/11/7 44/5/7
f 51/21/8 7/13/8 8/16/8 49/22/8
f 30/23/2 38/9/2 22/10/2 14/10/2
f 51/21/9 46/21/9 3/13/9 7/13/9
f 4/16/10 3/13/10 46/21/10 41/22/10
f 8/14/1 5/15/1 55/24/1 49/25/1
f 24/7/11 22/10/11 38/23/11 39/26/11
f 20/17/12 18/20/12 34/27/12 35/18/12
f 24/1/13 39/28/13 34/29/13 18/2/13
f 12/17/9 20/17/9 35/18/9 27/18/9
f 10/12/14 16/16/14 15/30/14 9/31/14
f 11/32/15 19/33/15 20/17/15 12/17/15
f 13/34/16 15/30/16 16/7/16 14/10/16
f 9/31/17 11/32/17 12/17/17 10/20/17
f 17/35/18 23/36/18 24/16/18 18/15/18
f 14/10/19 22/10/19 21/37/19 13/34/19
f 22/10/20 24/7/20 23/36/20 21/37/20
f 18/15/21 20/6/21 19/33/21 17/35/21
f 15/30/22 13/34/22 21/37/22 23/36/22 17/35/22 19/33/22 11/32/22 9/31/22
f 26/38/23 31/39/23 32/40/23 25/41/23
f 30/9/24 32/8/24 31/42/24 29/43/24
f 25/19/25 27/18/25 28/44/25 26/45/25
f 29/43/26 37/43/26 38/9/26 30/23/26
f 34/29/27 39/28/27 40/46/27 33/38/27
f 27/18/28 35/18/28 36/47/28 28/47/28
f 33/45/29 36/44/29 35/18/29 34/27/29
f 37/43/30 40/42/30 39/26/30 38/23/30
f 1/15/13 4/14/13 41/25/13 47/24/13
f 41/22/31 46/21/31 29/43/31 31/42/31
f 46/21/32 51/21/32 37/43/32 29/43/32
f 51/21/33 49/22/33 40/42/33 37/43/33
f 49/25/34 55/24/34 33/38/34 40/46/34
f 55/11/35 53/5/35 36/44/35 33/45/35
f 53/5/36 44/5/36 28/47/36 36/47/36
f 44/5/37 47/11/37 26/45/37 28/44/37
f 47/24/38 41/25/38 31/39/38 26/38/38
l 26 48
l 42 31
l 45 29
l 36 54
l 43 28
l 52 37
l 40 50
l 56 33
